<svg xmlns="http://www.w3.org/2000/svg" width="421" height="48" viewBox="0 0 421 48"><path fill="#c0d32b" d="M14.50 22.85L14.50 22.85Q13.15 22.85 12.45 22.80L12.45 22.80Q10.30 32.20 10.05 35.85L10.05 35.85Q7.90 36.90 3.50 36.90L3.50 36.90Q2.55 36.90 2.20 36.85L2.20 36.85Q2.55 33.90 5.20 22.03Q7.85 10.15 7.85 7.05L7.85 7.05Q7.85 6.45 7.18 5.48Q6.50 4.50 5.80 3.85L5.80 3.85L5.15 3.20L5.30 2.45Q13.70 1.20 18.90 1.20L18.90 1.20Q29.20 1.20 29.20 9.60L29.20 9.60Q29.20 15.20 25.50 19.03Q21.80 22.85 14.50 22.85ZM13.20 19.50L13.70 19.50Q17.55 19.50 19.53 16.60Q21.50 13.70 21.50 8.85L21.50 8.85Q21.50 6.85 20.75 5.58Q20 4.30 18.55 4.30L18.55 4.30Q17.60 4.30 16.20 4.65L16.20 4.65Q15.40 9.90 13.20 19.50L13.20 19.50ZM43.70 16L43.70 16Q43.80 15.90 44.25 14.70L44.25 14.70Q46.60 14.70 50.55 16.10L50.55 16.10Q49.30 20.25 48.55 24.78Q47.80 29.30 47.80 31.23Q47.80 33.15 48.20 33.15L48.20 33.15Q48.50 33.15 50.40 32.20L50.40 32.20L51 31.90L51.90 33.65Q51.45 34.05 50.73 34.65Q50 35.25 48 36.28Q46 37.30 44.40 37.30L44.40 37.30Q41.30 37.30 40.80 34.50L40.80 34.50Q37.60 37.30 35.02 37.30Q32.45 37.30 30.68 35.30Q28.90 33.30 28.90 29.00L28.90 29.00Q28.90 22.30 31.65 18.43Q34.40 14.55 38.30 14.55L38.30 14.55Q41.10 14.55 43.70 16ZM38 33.05L38 33.05Q39.20 33.05 40.70 32.10L40.70 32.10Q41.05 25.05 43.05 18.15L43.05 18.15Q41.55 17.50 40.50 17.50L40.50 17.50Q38.70 17.50 37.42 21.03Q36.15 24.55 36.15 28.80Q36.15 33.05 38 33.05ZM54.15 36.85L54.15 36.85L53.20 36.85Q53.20 34.50 54.63 27.85Q56.05 21.20 56.05 20.30L56.05 20.30Q56.05 18.65 54.65 16.80L54.65 16.80L54.20 16.20L54.25 15.55Q56.95 14.80 62.90 14.80L62.90 14.80Q63.55 15.65 63.60 17.90L63.60 17.90Q67.95 14.55 70.95 14.55L70.95 14.55Q72.75 14.55 73.83 15.80Q74.90 17.05 74.90 18.93Q74.90 20.80 73.75 25.40Q72.60 30.00 72.60 31.58Q72.60 33.15 73 33.15L73 33.15Q73.30 33.15 75.10 32.20L75.10 32.20L75.70 31.90L76.60 33.65Q76.15 34.05 75.40 34.65Q74.65 35.25 72.63 36.28Q70.60 37.30 69 37.30L69 37.30Q65.35 37.30 65.35 33.15L65.35 33.15Q65.35 31.40 66.47 26.70Q67.60 22 67.60 20.65Q67.60 19.30 66.75 19.30L66.75 19.30Q65.30 19.30 63.20 20.55L63.20 20.55Q63.05 21.40 62.20 25.05L62.20 25.05Q60.45 32.90 60.45 36.15L60.45 36.15Q58.70 36.85 54.15 36.85ZM84.53 42.10Q82.85 43.10 82.85 44.05Q82.85 45 83.92 45Q85 45 86.35 43.98Q87.70 42.95 88.60 40.65L88.60 40.65Q86.20 41.10 84.53 42.10ZM98.30 14.85L99.35 14.90Q99.55 15.10 99.55 15.78Q99.55 16.45 99.45 17.23Q99.35 18.00 99.10 20.70Q98.85 23.40 98.60 25.40L98.60 25.40Q96.05 47.90 84.90 47.90L84.90 47.90Q83.10 47.90 81.63 46.95Q80.15 46 80.15 44.50L80.15 44.50Q80.15 42.50 82.60 40.85Q85.05 39.20 89.20 38.30L89.20 38.30Q89.20 38.25 89.50 36.90Q89.80 35.55 89.90 34.70L89.90 34.70Q86.90 36.90 84.28 36.90Q81.65 36.90 79.98 34.85Q78.30 32.80 78.30 28.30L78.30 28.30Q78.30 22.40 80.95 18.48Q83.60 14.55 87.95 14.55L87.95 14.55Q90.40 14.55 92.80 15.75L92.80 15.75Q95.35 14.85 98.30 14.85L98.30 14.85ZM90.20 17.50L90.20 17.50Q88.05 17.50 86.80 20.98Q85.55 24.45 85.55 28.68Q85.55 32.90 87.45 32.90L87.45 32.90Q88.70 32.90 90.40 31.95L90.40 31.95Q91.80 23.55 92.40 18.10L92.40 18.10Q91 17.50 90.20 17.50ZM116.25 16L116.25 16Q116.35 15.90 116.80 14.70L116.80 14.70Q119.15 14.70 123.10 16.10L123.10 16.10Q121.85 20.25 121.10 24.78Q120.35 29.30 120.35 31.23Q120.35 33.15 120.75 33.15L120.75 33.15Q121.05 33.15 122.95 32.20L122.95 32.20L123.55 31.90L124.45 33.65Q124.00 34.05 123.28 34.65Q122.55 35.25 120.55 36.28Q118.55 37.30 116.95 37.30L116.95 37.30Q113.85 37.30 113.35 34.50L113.35 34.50Q110.15 37.30 107.58 37.30Q105.00 37.30 103.23 35.30Q101.45 33.30 101.45 29.00L101.45 29.00Q101.45 22.30 104.20 18.43Q106.95 14.55 110.85 14.55L110.85 14.55Q113.65 14.55 116.25 16ZM110.55 33.05L110.55 33.05Q111.75 33.05 113.25 32.10L113.25 32.10Q113.60 25.05 115.60 18.15L115.60 18.15Q114.10 17.50 113.05 17.50L113.05 17.50Q111.25 17.50 109.98 21.03Q108.70 24.55 108.70 28.80Q108.70 33.05 110.55 33.05ZM125.15 28.05L125.15 28.05Q125.15 21.80 128.93 18.18Q132.70 14.55 137.50 14.55L137.50 14.55Q140.45 14.55 142.35 16Q144.25 17.45 144.25 19.88Q144.25 22.30 143.03 23.95Q141.80 25.60 140.05 26.50L140.05 26.50Q136.50 28.25 133.55 28.70L133.55 28.70L132.35 28.85Q132.70 33.55 136.20 33.55L136.20 33.55Q137.40 33.55 138.75 32.95Q140.10 32.35 140.85 31.75L140.85 31.75L141.60 31.15L142.80 32.75Q142.40 33.30 141.20 34.20Q140 35.10 138.95 35.70L138.95 35.70Q136.05 37.30 132.60 37.30Q129.15 37.30 127.15 34.85Q125.15 32.40 125.15 28.05ZM132.30 26.40Q134.85 25.95 136.35 24.25Q137.85 22.55 137.85 19.85Q137.85 17.15 136.25 17.15L136.25 17.15Q134.35 17.15 133.33 20.38Q132.30 23.60 132.30 26.40L132.30 26.40ZM160.20 16L160.20 16Q160.30 15.90 160.75 14.70L160.75 14.70Q163.10 14.70 167.05 16.10L167.05 16.10Q165.80 20.25 165.05 24.78Q164.30 29.30 164.30 31.23Q164.30 33.15 164.70 33.15L164.70 33.15Q165 33.15 166.90 32.20L166.90 32.20L167.50 31.90L168.40 33.65Q167.95 34.05 167.23 34.65Q166.50 35.25 164.50 36.28Q162.50 37.30 160.90 37.30L160.90 37.30Q157.80 37.30 157.30 34.50L157.30 34.50Q154.10 37.30 151.53 37.30Q148.95 37.30 147.18 35.30Q145.40 33.30 145.40 29.00L145.40 29.00Q145.40 22.30 148.15 18.43Q150.90 14.55 154.80 14.55L154.80 14.55Q157.60 14.55 160.20 16ZM154.50 33.05L154.50 33.05Q155.70 33.05 157.20 32.10L157.20 32.10Q157.55 25.05 159.55 18.15L159.55 18.15Q158.05 17.50 157 17.50L157 17.50Q155.20 17.50 153.93 21.03Q152.65 24.55 152.65 28.80Q152.65 33.05 154.50 33.05ZM184.60 1.20L184.60 1.20L201.30 1.75L206 1.65Q206.15 2.70 206.15 3.85Q206.15 5 205.75 5.50Q205.35 6 204.30 6L204.30 6Q204.20 6 197.25 5.35L197.25 5.35Q197.05 7.60 195.75 13.05Q194.45 18.50 193.25 24.70Q192.05 30.90 192 35.85L192 35.85Q190.05 36.85 184 36.85L184 36.85L183.65 36.85Q183.65 34.25 186.50 21.35Q189.35 8.45 189.35 5.65L189.35 5.65Q189.35 5.45 189.25 4.95L189.25 4.95L187.25 4.95Q183.15 4.95 180.95 6.20L180.95 6.20Q179.80 4.70 179.55 1.80L179.55 1.80Q181.25 1.20 184.60 1.20ZM205.25 36.85L205.25 36.85L204.90 36.85Q204.80 36.45 204.80 35.03Q204.80 33.60 206.15 27.35Q207.50 21.10 207.50 20.20L207.50 20.20Q207.50 18.65 206.10 16.80L206.10 16.80L205.65 16.20L205.70 15.55Q208.40 14.80 214.35 14.80L214.35 14.80Q214.95 16.10 214.95 18.45L214.95 18.45Q215.50 17.55 217.25 16.05Q219 14.55 220.85 14.55L220.85 14.55Q223.55 14.55 223.55 19.25L223.55 19.25Q223.30 19.55 222.88 20.03Q222.45 20.50 221.18 21.35Q219.90 22.20 218.70 22.40L218.70 22.40Q218.65 22.40 217.85 21.05Q217.05 19.70 216.65 19.70L216.65 19.70Q215.40 20.15 214.45 21.20L214.45 21.20Q212.15 31.55 212.15 34.60L212.15 34.60Q212.15 35.70 212.20 36.15L212.20 36.15Q210.45 36.85 205.25 36.85ZM237.35 16L237.35 16Q237.45 15.90 237.90 14.70L237.90 14.70Q240.25 14.70 244.20 16.10L244.20 16.10Q242.95 20.25 242.20 24.78Q241.45 29.30 241.45 31.23Q241.45 33.15 241.85 33.15L241.85 33.15Q242.15 33.15 244.05 32.20L244.05 32.20L244.65 31.90L245.55 33.65Q245.10 34.05 244.38 34.65Q243.65 35.25 241.65 36.28Q239.65 37.30 238.05 37.30L238.05 37.30Q234.95 37.30 234.45 34.50L234.45 34.50Q231.25 37.30 228.67 37.30Q226.10 37.30 224.32 35.30Q222.55 33.30 222.55 29.00L222.55 29.00Q222.55 22.30 225.30 18.43Q228.05 14.55 231.95 14.55L231.95 14.55Q234.75 14.55 237.35 16ZM231.65 33.05L231.65 33.05Q232.85 33.05 234.35 32.10L234.35 32.10Q234.70 25.05 236.70 18.15L236.70 18.15Q235.20 17.50 234.15 17.50L234.15 17.50Q232.35 17.50 231.07 21.03Q229.80 24.55 229.80 28.80Q229.80 33.05 231.65 33.05ZM251.32 14.55Q253.50 14.55 254.57 15.45Q255.65 16.35 255.65 19.15L255.65 19.15Q255.65 20.65 254.75 25.28Q253.85 29.90 253.85 30.90L253.85 30.90Q253.85 32.90 254.65 32.90L254.65 32.90Q256.55 32.90 258.82 30.08Q261.10 27.25 261.20 25.35L261.20 25.35L257.80 21.55Q258 19.40 258.85 17.65Q259.70 15.90 260.45 15.20L260.45 15.20L261.15 14.55Q263.30 14.55 264.40 15.70Q265.50 16.85 265.50 18.40L265.50 18.40Q265.50 22.35 263.55 26.75Q261.60 31.15 258.35 34.23Q255.10 37.30 251.75 37.30L251.75 37.30Q249.65 37.30 248.52 36Q247.40 34.70 247.40 32.58Q247.40 30.45 247.72 26.85Q248.05 23.25 248.05 19.70L248.05 19.70Q248.05 18.90 247.47 17.80Q246.90 16.70 246.30 16.05L246.30 16.05L246.45 15.45Q249.15 14.55 251.32 14.55ZM265.95 28.05L265.95 28.05Q265.95 21.80 269.72 18.18Q273.50 14.55 278.30 14.55L278.30 14.55Q281.25 14.55 283.15 16Q285.05 17.45 285.05 19.88Q285.05 22.30 283.82 23.95Q282.60 25.60 280.85 26.50L280.85 26.50Q277.30 28.25 274.35 28.70L274.35 28.70L273.15 28.85Q273.50 33.55 277 33.55L277 33.55Q278.20 33.55 279.55 32.95Q280.90 32.35 281.65 31.75L281.65 31.75L282.40 31.15L283.60 32.75Q283.20 33.30 282 34.20Q280.80 35.10 279.75 35.70L279.75 35.70Q276.85 37.30 273.40 37.30Q269.95 37.30 267.95 34.85Q265.95 32.40 265.95 28.05ZM273.10 26.40Q275.65 25.95 277.15 24.25Q278.65 22.55 278.65 19.85Q278.65 17.15 277.05 17.15L277.05 17.15Q275.15 17.15 274.13 20.38Q273.10 23.60 273.10 26.40L273.10 26.40ZM289.97 37.30Q288.25 37.30 287.12 36.15Q286.00 35 286.00 32.93Q286.00 30.85 288.47 19.68Q290.95 8.50 290.95 3.55L290.95 3.55L290.65 1.35Q294.55 0 297.95 0L297.95 0Q298.45 0.70 298.45 2.45L298.45 2.45Q298.45 6.45 295.92 17.93Q293.40 29.40 293.40 31.28Q293.40 33.15 293.85 33.15L293.85 33.15L297.35 31.90L298.25 33.65Q296.55 35 294.12 36.15Q291.70 37.30 289.97 37.30ZM319 47.90L319 47.90Q316.50 47.90 314.85 46.68Q313.20 45.45 313.20 43.30L313.20 43.30Q313.20 37.55 324.95 35.75L324.95 35.75Q325.40 34.10 325.65 32.55L325.65 32.55Q323.35 33.95 320.80 33.95L320.80 33.95Q316.15 33.95 313.30 30.58Q310.45 27.20 310.45 21.80Q310.45 16.40 312.55 11.80Q314.65 7.20 318.57 4.20Q322.50 1.20 326.92 1.20Q331.35 1.20 334.17 3.38Q337 5.55 337 8.90L337 8.90Q337 10.90 336.30 12.15L336.30 12.15Q335.90 12.20 335.20 12.20L335.20 12.20Q331.35 12.20 329.40 10.95L329.40 10.95L329.45 5.55Q328.25 4.50 326.30 4.50L326.30 4.50Q323.25 4.50 320.90 9.18Q318.55 13.85 318.55 20.55L318.55 20.55Q318.55 25 320 27.10Q321.45 29.20 323.45 29.20L323.45 29.20Q326.45 29.20 328.85 26.20Q331.25 23.20 332.30 19.05L332.30 19.05L335 19.50Q333.10 33.80 329.25 40.85Q325.40 47.90 319 47.90ZM316.45 43.15L316.45 43.15Q316.45 44.55 318.80 44.55L318.80 44.55Q320 44.55 321.65 43.08Q323.30 41.60 324.15 39.25L324.15 39.25Q321.25 39.50 318.85 40.58Q316.45 41.65 316.45 43.15ZM338.15 32.93Q338.15 30.80 339.45 25.63Q340.75 20.45 340.75 19.28Q340.75 18.10 338.95 16.15L338.95 16.15L339 15.50Q342.40 14.80 347.95 14.80L347.95 14.80Q348.20 15.45 348.20 17.15Q348.20 18.85 346.80 24.40Q345.40 29.95 345.40 31.30Q345.40 32.65 346.40 32.65L346.40 32.65Q347.85 32.65 349.75 31.60L349.75 31.60Q349.95 30.40 350.75 27L350.75 27Q352.55 19.00 352.55 15.55L352.55 15.55Q354.30 14.85 358.85 14.85L358.85 14.85L359.80 14.85Q359.80 17.20 358.40 24.03Q357 30.85 357 32.03Q357 33.20 357.50 33.20L357.50 33.20Q357.80 33.20 360.35 32L360.35 32L361.30 33.60Q356.85 37.30 353.50 37.30L353.50 37.30Q351.90 37.30 350.77 36.40Q349.65 35.50 349.50 34.05L349.50 34.05Q345.45 37.35 342.15 37.35L342.15 37.35Q340.40 37.35 339.27 36.20Q338.15 35.05 338.15 32.93ZM373.05 17.65Q373.05 19.75 371.70 24.88Q370.35 30.00 370.35 31.58Q370.35 33.15 370.80 33.15L370.80 33.15Q371.10 33.15 373.10 32.20L373.10 32.20L373.70 31.90L374.55 33.65Q374.10 34.05 373.35 34.65Q372.60 35.25 370.55 36.28Q368.50 37.30 366.75 37.30Q365 37.30 364 36.23Q363 35.15 363 33.33Q363 31.50 364.25 26.83Q365.50 22.15 365.50 20.75L365.50 20.75Q365.50 18.65 364.20 16.80L364.20 16.80L363.75 16.20L363.80 15.55Q366.45 14.80 372.40 14.80L372.40 14.80Q373.05 15.55 373.05 17.65ZM367.35 9.33Q366.35 8.35 366.35 6.70Q366.35 5.05 367.72 3.80Q369.10 2.55 370.90 2.55Q372.70 2.55 373.70 3.55Q374.70 4.55 374.70 6.18Q374.70 7.80 373.27 9.05Q371.85 10.30 370.10 10.30Q368.35 10.30 367.35 9.33ZM399.05 31.90L400 33.65Q395.75 37.30 392.53 37.30Q389.30 37.30 388.80 34.10L388.80 34.10Q387.30 35.60 385.45 36.45Q383.60 37.30 382.20 37.30L382.20 37.30Q379.80 37.30 378.10 35.20Q376.40 33.10 376.40 28.70L376.40 28.70Q376.40 22.10 379.20 18.33Q382 14.55 385.53 14.55Q389.05 14.55 391.45 16.15L391.45 16.15Q393 8.05 393 3.40L393 3.40L392.75 1.30Q396.50 0 400.10 0L400.10 0Q400.50 0.85 400.50 1.95L400.50 1.95Q400.50 5.60 398.30 16.78Q396.10 27.95 396.10 31.95L396.10 31.95Q396.10 33.15 396.65 33.15L396.65 33.15Q396.95 33.15 398.55 32.20L398.55 32.20L399.05 31.90ZM387.95 17.50L387.95 17.50Q386.20 17.50 384.93 20.95Q383.65 24.40 383.65 27.78Q383.65 31.15 384.13 32.10Q384.60 33.05 385.55 33.05L385.55 33.05Q387.20 33.05 388.80 31.70L388.80 31.70Q388.95 29.70 391.05 18.40L391.05 18.40Q389.35 17.50 387.95 17.50ZM401.20 28.05L401.20 28.05Q401.20 21.80 404.98 18.18Q408.75 14.55 413.55 14.55L413.55 14.55Q416.50 14.55 418.40 16Q420.30 17.45 420.30 19.88Q420.30 22.30 419.08 23.95Q417.85 25.60 416.10 26.50L416.10 26.50Q412.55 28.25 409.60 28.70L409.60 28.70L408.40 28.85Q408.75 33.55 412.25 33.55L412.25 33.55Q413.45 33.55 414.80 32.95Q416.15 32.35 416.90 31.75L416.90 31.75L417.65 31.15L418.85 32.75Q418.45 33.30 417.25 34.20Q416.05 35.10 415.00 35.70L415.00 35.70Q412.10 37.30 408.65 37.30Q405.20 37.30 403.20 34.85Q401.20 32.40 401.20 28.05ZM408.35 26.40Q410.90 25.95 412.40 24.25Q413.90 22.55 413.90 19.85Q413.90 17.15 412.30 17.15L412.30 17.15Q410.40 17.15 409.38 20.38Q408.35 23.60 408.35 26.40L408.35 26.40Z"></path></svg>